<?xml version="1.0" encoding="UTF-8"?><svg id="Layer_1" xmlns="http://www.w3.org/2000/svg" viewBox="0 0 1920 900"><defs><style>.cls-1{fill:#12110e;}.cls-2{fill:#464749;}</style></defs><path id="Topp" class="cls-2" d="M388.2,372.07c159.06-.67,410.1-.35,571.07-.42,161.49,.07,411.37-.25,571.1,.42-159.06,.67-410.12,.35-571.1,.42-161.47-.07-411.36,.25-571.07-.42"/><path id="Topp_02" class="cls-2" d="M388.2,397.44c159.26-.67,410.61-.35,571.78-.42,161.69,.07,411.88-.25,571.81,.42-159.26,.67-410.63,.35-571.81,.42-161.67-.07-411.86,.25-571.78-.42"/><path id="Bunn" class="cls-2" d="M388.2,537.56c159.06-.67,410.1-.35,571.07-.42,161.49,.07,411.37-.25,571.1,.42-159.06,.67-410.12,.35-571.1,.42-161.47-.07-411.36,.25-571.07-.42"/><path id="Bunn_02" class="cls-2" d="M388.2,512.5c159.06-.87,410.1-.46,571.07-.54,161.49,.09,411.37-.33,571.1,.54-159.06,.87-410.12,.46-571.1,.54-161.47-.09-411.36,.33-571.07-.54"/><path id="N_01" class="cls-2" d="M418.74,338.55c.67,31.78,.35,81.93,.42,114.09-.07,32.26,.25,82.18-.42,114.09-.67-31.77-.36-81.93-.42-114.09,.06-32.26-.26-82.18,.42-114.09"/><path id="N_02" class="cls-2" d="M446.53,338.55c.67,31.78,.35,81.93,.42,114.09-.07,32.26,.25,82.18-.42,114.09-.67-31.77-.35-81.93-.42-114.09,.07-32.26-.25-82.18,.42-114.09"/><path id="N_03" class="cls-2" d="M552.41,338.55c.67,31.78,.35,81.93,.42,114.09-.07,32.26,.25,82.18-.42,114.09-.67-31.77-.35-81.93-.42-114.09,.07-32.26-.25-82.18,.42-114.09"/><path id="N_04" class="cls-2" d="M580.17,333.21c.67,31.78,.35,81.93,.42,114.09-.07,32.26,.25,82.18-.42,114.09-.67-31.77-.35-81.93-.42-114.09,.07-32.26-.25-82.18,.42-114.09"/><path id="N_05" class="cls-2" d="M426.16,355.31c47.8,88.32,69.85,132.16,116.17,221.25-47.8-88.32-69.85-132.16-116.17-221.25"/><path id="N_06" class="cls-2" d="M446.25,323.44c42.12,79.09,88.67,168.2,129.53,247.95-42.12-79.09-88.67-168.2-129.53-247.95"/><path id="O1_01" class="cls-2" d="M605.88,399.57c.67,14.78,.35,38.1,.42,53.06-.07,15,.25,38.22-.42,53.06-.67-14.78-.36-38.1-.42-53.06,.06-15-.26-38.22,.42-53.06"/><path id="O1_02" class="cls-2" d="M633.94,350.36c.67,28.49,.35,73.45,.42,102.28-.07,28.92,.25,73.67-.42,102.28-.67-28.48-.36-73.45-.42-102.28,.06-28.92-.26-73.67,.42-102.28"/><path id="O1_03" class="cls-2" d="M745.94,355.36c.67,28.49,.35,73.45,.42,102.28-.07,28.92,.25,73.67-.42,102.28-.67-28.48-.36-73.45-.42-102.28,.06-28.92-.26-73.67,.42-102.28"/><path id="O1_04" class="cls-2" d="M773.66,399.57c.67,14.78,.35,38.1,.42,53.06-.07,15,.25,38.22-.42,53.06-.67-14.78-.36-38.1-.42-53.06,.06-15-.26-38.22,.42-53.06"/><g id="O1_sirkel"><path class="cls-2" d="M689.81,370.33c22.79,0,43.85,8.56,59.27,24.11,15.51,15.64,24.06,37.09,24.06,60.41s-8.54,44.77-24.06,60.4c-15.43,15.55-36.48,24.11-59.27,24.11s-43.84-8.56-59.27-24.11c-15.51-15.64-24.06-37.09-24.06-60.4s8.54-44.77,24.06-60.41c15.43-15.55,36.48-24.11,59.27-24.11m0-1c-47.51,0-84.33,36.58-84.33,85.52s36.82,85.52,84.33,85.52,84.33-36.58,84.33-85.52-36.82-85.52-84.33-85.52h0Z"/></g><path id="B_01" class="cls-2" d="M799.46,346.18c.67,31.78,.35,81.93,.42,114.09-.07,32.26,.25,82.18-.42,114.09-.67-31.77-.36-81.93-.42-114.09,.06-32.26-.26-82.18,.42-114.09"/><path id="B_02" class="cls-2" d="M827.1,346.18c.67,31.78,.35,81.93,.42,114.09-.07,32.26,.25,82.18-.42,114.09-.67-31.77-.36-81.93-.42-114.09,.06-32.26-.26-82.18,.42-114.09"/><path id="B_03" class="cls-2" d="M891.31,440.11c.67,17.05,.35,43.96,.42,61.22-.07,17.31,.25,44.1-.42,61.22-.67-17.05-.36-43.96-.42-61.22,.06-17.31-.26-44.1,.42-61.22"/><path id="B_04" class="cls-2" d="M919.13,451.4c.67,10.8,.35,27.84,.42,38.78-.07,10.96,.25,27.93-.42,38.77-.67-10.8-.36-27.85-.42-38.78,.06-10.96-.26-27.93,.42-38.78"/><path id="B_05" class="cls-2" d="M877.49,362.99c.67,11.7,.35,30.16,.42,42-.07,11.88,.25,30.26-.42,42-.67-11.7-.36-30.16-.42-42,.06-11.88-.26-30.26,.42-42"/><path id="B_06" class="cls-2" d="M905.13,377.3c.67,10.8,.35,27.84,.42,38.78-.07,10.96,.25,27.93-.42,38.77-.67-10.8-.36-27.85-.42-38.78,.06-10.96-.26-27.93,.42-38.78"/><path id="B_07" class="cls-2" d="M779.5,461.17c19.32-.67,49.81-.35,69.36-.42,19.61,.07,49.96-.25,69.36,.42-19.32,.67-49.81,.35-69.36,.42-19.61-.07-49.96,.25-69.36-.42"/><path id="B_08" class="cls-2" d="M777.19,436.69c20.33-.67,52.43-.35,73.01-.42,20.65,.07,52.59-.25,73.01,.42-20.34,.67-52.43,.35-73.01,.42-20.64-.07-52.59,.25-73.01-.42"/><path id="E_01" class="cls-2" d="M944.54,346.23c.67,31.78,.35,81.93,.42,114.09-.07,32.26,.25,82.18-.42,114.09-.67-31.77-.36-81.93-.42-114.09,.06-32.26-.26-82.18,.42-114.09"/><path id="E_02" class="cls-2" d="M972.53,346.18c.67,31.78,.35,81.93,.42,114.09-.07,32.26,.25,82.18-.42,114.09-.67-31.77-.36-81.93-.42-114.09,.06-32.26-.26-82.18,.42-114.09"/><path id="E_03" class="cls-2" d="M925.52,461.6c19.32-.67,49.81-.35,69.36-.42,19.61,.07,49.96-.25,69.36,.42-19.32,.67-49.81,.35-69.36,.42-19.61-.07-49.96,.25-69.36-.42"/><path id="E_04" class="cls-2" d="M923.22,436.25c20.33-.67,52.43-.35,73.01-.42,20.65,.07,52.59-.25,73.01,.42-20.34,.67-52.43,.35-73.01,.42-20.64-.07-52.59,.25-73.01-.42"/><path id="L1_01" class="cls-2" d="M1086.05,346.18c.67,31.78,.35,81.93,.42,114.09-.07,32.26,.25,82.18-.42,114.09-.67-31.77-.36-81.93-.42-114.09,.06-32.26-.26-82.18,.42-114.09"/><path id="L1_02" class="cls-2" d="M1113.89,346.18c.67,31.78,.35,81.93,.42,114.09-.07,32.26,.25,82.18-.42,114.09-.67-31.77-.36-81.93-.42-114.09,.06-32.26-.26-82.18,.42-114.09"/><path id="L2_01" class="cls-2" d="M1222.68,346.18c.67,31.78,.35,81.93,.42,114.09-.07,32.26,.25,82.18-.42,114.09-.67-31.77-.36-81.93-.42-114.09,.06-32.26-.26-82.18,.42-114.09"/><path id="L2_02" class="cls-2" d="M1250.44,346.18c.67,31.78,.35,81.93,.42,114.09-.07,32.26,.25,82.18-.42,114.09-.67-31.77-.36-81.93-.42-114.09,.06-32.26-.26-82.18,.42-114.09"/><path id="O2_01" class="cls-2" d="M1344.55,399.57c.67,14.78,.35,38.1,.42,53.06-.07,15,.25,38.22-.42,53.06-.67-14.78-.36-38.1-.42-53.06,.06-15-.26-38.22,.42-53.06"/><path id="O2_02" class="cls-2" d="M1371.94,350.36c.67,28.49,.35,73.45,.42,102.28-.07,28.92,.25,73.67-.42,102.28-.67-28.48-.36-73.45-.42-102.28,.06-28.92-.26-73.67,.42-102.28"/><path id="O2_03" class="cls-2" d="M1483.94,355.36c.67,28.49,.35,73.45,.42,102.28-.07,28.92,.25,73.67-.42,102.28-.67-28.48-.36-73.45-.42-102.28,.06-28.92-.26-73.67,.42-102.28"/><path id="O2_04" class="cls-2" d="M1511.98,399.57c.67,14.78,.35,38.1,.42,53.06-.07,15,.25,38.22-.42,53.06-.67-14.78-.36-38.1-.42-53.06,.06-15-.26-38.22,.42-53.06"/><g id="O2_sirkel"><path class="cls-2" d="M1428.43,370.33c22.79,0,43.85,8.56,59.27,24.11,15.51,15.64,24.06,37.09,24.06,60.41s-8.54,44.77-24.06,60.4c-15.43,15.55-36.48,24.11-59.27,24.11s-43.84-8.56-59.27-24.11c-15.51-15.64-24.06-37.09-24.06-60.4s8.54-44.77,24.06-60.41c15.43-15.55,36.48-24.11,59.27-24.11m0-1c-47.51,0-84.33,36.58-84.33,85.52s36.82,85.52,84.33,85.52,84.33-36.58,84.33-85.52-36.82-85.52-84.33-85.52h0Z"/></g><g id="O2"><path class="cls-1" d="M1428.43,372.34c22.26,0,42.8,8.35,57.85,23.52,15.14,15.26,23.48,36.21,23.48,59s-8.34,43.74-23.48,59c-15.05,15.17-35.6,23.52-57.85,23.52s-42.8-8.35-57.85-23.52c-15.14-15.26-23.48-36.21-23.48-59s8.34-43.74,23.48-59c15.05-15.17,35.59-23.52,57.85-23.52m0,144.91c16.26,0,31.23-6.46,42.14-18.18,10.76-11.57,16.69-27.27,16.69-44.21s-5.93-32.64-16.69-44.21c-10.91-11.72-25.87-18.18-42.14-18.18s-31.22,6.46-42.13,18.18c-10.76,11.57-16.69,27.27-16.69,44.21s5.93,32.64,16.69,44.21c10.91,11.72,25.87,18.18,42.13,18.18m0-147.91c-47.51,0-84.33,36.58-84.33,85.52s36.82,85.52,84.33,85.52,84.33-36.58,84.33-85.52-36.82-85.52-84.33-85.52h0Zm0,144.91c-32.07,0-55.82-26.13-55.82-59.39s23.76-59.39,55.82-59.39,55.82,26.13,55.82,59.39-23.75,59.39-55.82,59.39h0Z"/></g><g id="L2"><path class="cls-1" d="M1247.8,374.71v140.16h92.65v20.13h-115.15v-160.29h22.5m3-3h-28.5v166.29h121.15v-26.13h-92.65v-140.16h0Z"/></g><g id="L1"><path class="cls-1" d="M1111.22,374.71v140.16h92.65v20.13h-115.15v-160.29h22.5m3-3h-28.5v166.29h121.15v-26.13h-92.65v-140.16h0Z"/></g><g id="E"><path class="cls-1" d="M1056.36,374.71v20.13h-86.71v44.01h71.27v20.13h-71.27v55.89h89.08v20.13h-111.59v-160.29h109.21m3-3h-115.21v166.29h117.59v-26.13h-89.08v-49.89h71.27v-26.13h-71.27v-38.01h86.71v-26.13h0Z"/></g><g id="B"><path class="cls-1" d="M855.08,374.71c15.58,0,26.08,3.34,34.08,10.85,8.74,8.04,13.76,19.18,13.76,30.57,0,9.44-4.4,20.03-10.96,26.35l-3.05,2.95,3.79,1.9c14.64,7.32,24.47,23.52,24.47,40.31,0,13.09-5.57,25.48-15.66,34.85-9.39,8.65-21.22,12.51-38.35,12.51h-61.14v-160.29h53.06m-30.55,64.61h28.66c9.71,0,15.72-1.73,20.11-5.8,4.59-4.31,7.12-10.23,7.12-16.68s-2.53-12.38-7.13-16.69c-4.37-4.06-10.38-5.79-20.1-5.79h-28.66v44.96m0,76.02h36.97c11.82,0,19.59-2.62,25.19-8.51,5.15-5.16,7.98-12.23,7.98-19.91s-2.83-14.75-7.98-19.91c-5.6-5.88-13.38-8.51-25.19-8.51h-36.97v56.84m30.55-143.63h-56.06v166.29h64.14c19.48,0,31.36-4.99,40.38-13.3,9.98-9.27,16.63-22.33,16.63-37.06,0-18.53-10.93-35.39-26.13-43,6.65-6.41,11.87-17.58,11.87-28.51,0-13.06-5.94-24.7-14.73-32.78-7.84-7.36-18.29-11.64-36.11-11.64h0Zm-27.55,64.61v-38.96h25.66c9.98,0,14.73,1.9,18.05,4.99,3.8,3.56,6.18,8.55,6.18,14.49s-2.37,10.93-6.18,14.49c-3.33,3.09-8.08,4.99-18.05,4.99h-25.66Zm0,76.02v-50.84h33.97c12.12,0,18.53,2.85,23.04,7.6,4.52,4.52,7.13,10.69,7.13,17.82s-2.61,13.31-7.13,17.82c-4.51,4.75-10.93,7.6-23.04,7.6h-33.97Z"/></g><g id="O1"><path class="cls-1" d="M689.76,372.34c22.26,0,42.8,8.35,57.85,23.52,15.14,15.26,23.48,36.21,23.48,59s-8.34,43.74-23.48,59c-15.05,15.17-35.6,23.52-57.85,23.52s-42.8-8.35-57.85-23.52c-15.14-15.26-23.48-36.21-23.48-59s8.34-43.74,23.48-59c15.05-15.17,35.59-23.52,57.85-23.52m0,144.91c16.26,0,31.23-6.46,42.14-18.18,10.76-11.57,16.69-27.27,16.69-44.21s-5.93-32.64-16.69-44.21c-10.91-11.72-25.87-18.18-42.14-18.18s-31.22,6.46-42.13,18.18c-10.76,11.57-16.69,27.27-16.69,44.21s5.93,32.64,16.69,44.21c10.91,11.72,25.87,18.18,42.13,18.18m0-147.91c-47.51,0-84.33,36.58-84.33,85.52s36.82,85.52,84.33,85.52,84.33-36.58,84.33-85.52-36.82-85.52-84.33-85.52h0Zm0,144.91c-32.07,0-55.82-26.13-55.82-59.39s23.76-59.39,55.82-59.39,55.82,26.13,55.82,59.39-23.75,59.39-55.82,59.39h0Z"/></g><g id="N"><path class="cls-1" d="M577.54,374.7v160.32h-54.3l-70.54-136.19-.84-1.62h-7.96v137.81h-22.51v-160.32h48.65l71.28,136.2,.84,1.61h12.86v-137.81h22.51m3-3h-28.51v137.81h-8.05l-72.12-137.81h-53.47v166.32h28.51v-137.81h3.13l71.38,137.81h59.13v-166.32h0Z"/></g></svg>