<?xml version="1.0" encoding="UTF-8"?><svg id="Layer_1" xmlns="http://www.w3.org/2000/svg" viewBox="0 0 900 900"><defs><style>.cls-1{fill:#fff;}.cls-2{fill:#12110e;}.cls-3{fill:#575756;}</style></defs><path class="cls-3" d="M366.47,339.16c.69,31.86,.36,82.14,.43,114.39-.07,32.34,.26,82.4-.43,114.39-.68-31.86-.36-82.14-.42-114.39,.07-32.34-.26-82.4,.42-114.39h0Z"/><path class="cls-3" d="M394.31,339.16c.69,31.86,.36,82.14,.43,114.39-.07,32.34,.26,82.4-.43,114.39-.68-31.86-.36-82.14-.43-114.39,.07-32.34-.26-82.4,.43-114.39h0Z"/><path class="cls-3" d="M500.28,339.16c.69,31.86,.36,82.14,.43,114.39-.07,32.34,.26,82.4-.43,114.39-.68-31.86-.36-82.14-.42-114.39,.07-32.34-.26-82.4,.42-114.39h0Z"/><path class="cls-3" d="M528.04,333.82c.69,31.86,.36,82.14,.43,114.39-.07,32.34,.26,82.4-.43,114.39-.68-31.86-.36-82.14-.43-114.39,.07-32.34-.26-82.4,.43-114.39h0Z"/><path class="cls-3" d="M335.84,537.88c31.86-.69,82.14-.36,114.39-.43,32.34,.07,82.4-.26,114.39,.43-31.86,.68-82.14,.36-114.39,.42-32.34-.07-82.4,.26-114.39-.42h0Z"/><path class="cls-3" d="M335.84,372.24c31.86-.69,82.14-.36,114.39-.42,32.34,.07,82.4-.26,114.39,.42-31.86,.68-82.14,.36-114.39,.42-32.34-.07-82.4,.26-114.39-.42h0Z"/><path class="cls-3" d="M335.84,510.25c31.86-.69,82.14-.36,114.39-.42,32.34,.07,82.4-.26,114.39,.42-31.86,.68-82.14,.36-114.39,.42-32.34-.07-82.4,.26-114.39-.42h0Z"/><path class="cls-3" d="M335.38,399.89c31.86-.69,82.14-.36,114.39-.43,32.34,.07,82.4-.26,114.39,.43-31.86,.68-82.14,.36-114.39,.42-32.34-.07-82.4,.26-114.39-.42h0Z"/><path class="cls-3" d="M394.28,323.97c42.24,79.29,88.91,168.64,129.87,248.6-42.24-79.29-88.92-168.64-129.87-248.6h0Z"/><path class="cls-3" d="M369.95,346.95c40.93,76.78,86.13,163.31,125.78,240.77-40.93-76.78-86.14-163.31-125.78-240.77h0Z"/><g><polygon class="cls-1" points="469.86 537.33 398.4 399.35 393.65 399.35 393.65 537.33 367.11 537.33 367.11 372.8 415.68 372.8 415.68 372.82 416.7 372.85 419.04 372.81 491.25 510.78 500.91 510.78 500.91 372.8 527.46 372.8 527.46 537.33 505.4 537.33 505.41 537.33 469.86 537.33"/><path class="cls-2" d="M526.46,373.8v162.52h-55.99l-70.9-136.9-.56-1.08h-6.35v137.98h-24.54v-162.52h46.57v.08l2.03-.03,1.73-.03,71.64,136.89,.56,1.07h11.27v-137.98h24.54m2-2h-28.54v137.98h-8.06l-72.21-137.98-2.96,.05v-.05h-50.57v166.52h28.54v-137.98h3.14l71.46,137.98h59.2v-166.53h0Z"/></g></svg>